# xmcd CD database file
#
# Track frame offsets:
#	150
#	29370
#	55348
#	77108
#	102886
#	147575
#	167811
#	186821
#	205792
#	233842
#
# Disc length: 3355 seconds
#
# Revision: 0
# Processed by: cddbd v1.5.2PL0 Copyright (c) Steve Scherf et al.
# Submitted via: CDex 1.70beta2
#
DISCID=870d190a
DTITLE=The Vignola Collective - Gypsy Grass
DYEAR=2009
DGENRE=Jazz
TTITLE0=Funky Monkey
TTITLE1=Appel Direct
TTITLE2=A Miinor Idea
TTITLE3=Professional Solutions
TTITLE4=Slayer in the Grass
TTITLE5=Fly Swatter
TTITLE6=My Back
TTITLE7=One Beautiful Evening
TTITLE8=Lemme Take You to the Beach
TTITLE9=Super Mario Bros. Theme
EXTD=YEAR: 2009
EXTT0=
EXTT1=
EXTT2=
EXTT3=
EXTT4=
EXTT5=
EXTT6=
EXTT7=
EXTT8=
EXTT9=
PLAYORDER=
